# xmcd CD database file
#
# Track frame offsets:
#	182
#	11742
#	26190
#	35160
#	46912
#	60232
#	72995
#	83845
#	93652
#	105615
#
# Disc length: 1557 seconds
#
# Revision: 0
# Processed by: cddbd v1.4PL0 Copyright (c) Steve Scherf et al.
# Submitted via: CDex 1.40Release
#
DISCID=8106130a
DTITLE=Patsy Cline - Walkin After Midnight
DYEAR=1900
DGENRE=Country
TTITLE0=Walkin' After Midnight
TTITLE1=Then You'll Know
TTITLE2=Try Again
TTITLE3=A Poor Man's Roses
TTITLE4=(f I could see the world through) the eyes of the child
TTITLE5=Just a Closer Walk with Thee
TTITLE6=I Can See an Angel
TTITLE7=I'm blue Again
TTITLE8=Today, Tomorrow and Forever
TTITLE9=Just out of my Reach (of my two open arms)
EXTD=ID3G: 2
EXTT0=
EXTT1=
EXTT2=
EXTT3=
EXTT4=
EXTT5=
EXTT6=
EXTT7=
EXTT8=
EXTT9=
PLAYORDER=
